<svg width="30" height="30" viewBox="0 0 30 30" fill="none" xmlns="http://www.w3.org/2000/svg">
<path d="M14.994 0C12.0273 0.00118471 9.12755 0.882077 6.66147 2.53128C4.19539 4.18049 2.27374 6.52394 1.13952 9.26528C0.00530283 12.0066 -0.290543 15.0227 0.289397 17.9322C0.869337 20.8417 2.29902 23.5139 4.39764 25.6108C6.49626 27.7078 9.16958 29.1353 12.0795 29.7129C14.9895 30.2906 18.0053 29.9923 20.7458 28.8559C23.4862 27.7195 25.8281 25.796 27.4754 23.3286C29.1226 20.8612 30.0012 17.9607 30 14.994C29.9937 11.0172 28.4103 7.20531 25.5971 4.39442C22.784 1.58352 18.9708 0.00316665 14.994 0V0ZM16.7388 20.8551C15.2404 22.7531 13.0613 23.9927 10.6641 24.3106C10.6641 24.3106 12.4108 23.6518 14.0578 20.917C15.6548 18.0164 15.7786 15.8404 17.2718 13.9639C19.811 10.8018 23.061 11.5425 23.061 11.5425C22.6877 10.3567 21.5837 9.62204 20.0186 9.69191C19.5076 8.04099 17.3057 7.43013 15.7326 8.24661C14.5648 8.84549 13.3132 9.72984 11.9138 9.70189C11.7571 9.70516 11.6004 9.69849 11.4446 9.68193C10.5722 9.54922 9.76647 9.13656 9.14893 8.50612C9.05111 9.86958 9.93147 11.1452 10.9675 11.5704C12.7282 12.295 13.9959 11.4167 13.9959 11.4167C12.875 14.3673 10.8618 16.8948 8.23663 18.6472C5.27616 17.1899 3.32979 14.5149 2.92654 10.8398C3.91779 7.99746 5.88328 5.59786 8.47469 4.06623C11.0661 2.53461 14.1161 1.96987 17.0841 2.47211C20.0521 2.97435 22.7464 4.51114 24.6896 6.8101C26.6328 9.10906 27.6994 12.0217 27.7003 15.0319C27.7003 15.1737 27.7003 15.3134 27.6883 15.4551C26.468 17.2049 24.8243 18.6169 22.9106 19.5594C20.9969 20.5019 18.8757 20.9443 16.7447 20.8451" fill="#FD8004"/>
</svg>
